<svg width="48" height="48" viewBox="0 0 48 48" fill="none" xmlns="http://www.w3.org/2000/svg">
<mask id="path-1-outside-1_98_387" maskUnits="userSpaceOnUse" x="5" y="3" width="38" height="42" fill="black">
<rect fill="white" x="5" y="3" width="38" height="42"/>
<path fill-rule="evenodd" clip-rule="evenodd" d="M10 10V14C10 14.7474 10.7175 15.447 11.9665 16.0455C9.49702 17.1014 8 18.4852 8 20V36C8 39.3137 15.1634 42 24 42C32.8366 42 40 39.3137 40 36V20C40 18.4852 38.503 17.1014 36.0335 16.0455C37.2825 15.447 38 14.7474 38 14V10C38 7.79086 31.732 6 24 6C16.268 6 10 7.79086 10 10Z"/>
</mask>
<path fill-rule="evenodd" clip-rule="evenodd" d="M10 10V14C10 14.7474 10.7175 15.447 11.9665 16.0455C9.49702 17.1014 8 18.4852 8 20V36C8 39.3137 15.1634 42 24 42C32.8366 42 40 39.3137 40 36V20C40 18.4852 38.503 17.1014 36.0335 16.0455C37.2825 15.447 38 14.7474 38 14V10C38 7.79086 31.732 6 24 6C16.268 6 10 7.79086 10 10Z" fill="white"/>
<path d="M11.9665 16.0455L13.146 18.804L19.2334 16.2011L13.263 13.3401L11.9665 16.0455ZM36.0335 16.0455L34.737 13.3401L28.7666 16.2011L34.854 18.804L36.0335 16.0455ZM13 14V10H7V14H13ZM13.263 13.3401C13.052 13.239 12.8985 13.1502 12.7928 13.08C12.6849 13.0082 12.6504 12.9715 12.6599 12.9813C12.6689 12.9905 12.7509 13.0757 12.8341 13.2482C12.9227 13.4321 13 13.6911 13 14H7C7 15.4053 7.68788 16.4785 8.36987 17.176C9.04053 17.8619 9.87116 18.3681 10.6701 18.7509L13.263 13.3401ZM11 20C11 20.3053 10.8363 20.3066 11.1538 19.9965C11.4801 19.6776 12.1108 19.2466 13.146 18.804L10.7871 13.2871C9.35274 13.9004 8.00014 14.6892 6.96064 15.7049C5.91218 16.7293 5 18.1798 5 20H11ZM11 36V20H5V36H11ZM24 39C19.8462 39 16.2193 38.3635 13.7397 37.4337C12.4888 36.9646 11.6849 36.4784 11.2476 36.0907C10.8068 35.6999 11 35.6624 11 36H5C5 37.9945 6.08862 39.5354 7.26714 40.5802C8.44915 41.6282 9.98839 42.4349 11.6329 43.0516C14.9441 44.2933 19.3172 45 24 45V39ZM37 36C37 35.6624 37.1932 35.6999 36.7524 36.0907C36.3151 36.4784 35.5112 36.9646 34.2603 37.4337C31.7807 38.3635 28.1538 39 24 39V45C28.6828 45 33.0559 44.2933 36.3671 43.0516C38.0116 42.4349 39.5508 41.6282 40.7329 40.5802C41.9114 39.5354 43 37.9945 43 36H37ZM37 20V36H43V20H37ZM34.854 18.804C35.8892 19.2466 36.5199 19.6776 36.8462 19.9965C37.1637 20.3066 37 20.3053 37 20H43C43 18.1798 42.0878 16.7293 41.0394 15.7049C39.9999 14.6892 38.6473 13.9004 37.2129 13.2871L34.854 18.804ZM35 14C35 13.6911 35.0773 13.4321 35.1659 13.2482C35.2491 13.0757 35.3311 12.9905 35.3401 12.9813C35.3496 12.9715 35.3151 13.0082 35.2072 13.08C35.1015 13.1502 34.948 13.239 34.737 13.3401L37.3299 18.7509C38.1288 18.3681 38.9595 17.8619 39.6301 17.176C40.3121 16.4785 41 15.4053 41 14H35ZM35 10V14H41V10H35ZM24 9C27.6687 9 30.8783 9.42841 33.0753 10.0561C34.1943 10.3758 34.8817 10.7001 35.2205 10.929C35.664 11.2286 35 10.9702 35 10H41C41 7.92522 39.5525 6.61457 38.5791 5.95706C37.501 5.22882 36.1382 4.69116 34.7237 4.287C31.8537 3.46702 28.0633 3 24 3V9ZM13 10C13 10.9702 12.336 11.2286 12.7795 10.929C13.1183 10.7001 13.8057 10.3758 14.9247 10.0561C17.1217 9.42841 20.3313 9 24 9V3C19.9367 3 16.1463 3.46702 13.2763 4.287C11.8618 4.69116 10.499 5.22882 9.42091 5.95706C8.44755 6.61456 7 7.92522 7 10H13Z" fill="#111111" mask="url(#path-1-outside-1_98_387)"/>
<path fill-rule="evenodd" clip-rule="evenodd" d="M10 14V10C10 7.79086 16.268 6 24 6C31.732 6 38 7.79086 38 10V14C38 16.2091 31.732 18 24 18C16.268 18 10 16.2091 10 14Z" fill="#F97316"/>
<path fill-rule="evenodd" clip-rule="evenodd" d="M24 14C31.732 14 38 12.2091 38 10V14C38 16.2091 31.732 18 24 18C16.268 18 10 16.2091 10 14V10C10 12.2091 16.268 14 24 14Z" fill="#CE002D"/>
<path fill-rule="evenodd" clip-rule="evenodd" d="M24 24C32.8366 24 40 22.2091 40 20V36C40 39.3137 32.8366 42 24 42C15.1634 42 8 39.3137 8 36V20C8 22.2091 15.1634 24 24 24Z" fill="#111111" fill-opacity="0.1"/>
</svg>
