<svg width="32" height="32" viewBox="0 0 32 32" fill="none" xmlns="http://www.w3.org/2000/svg">
<path d="M2.84946 11.3609L1.26989 18.8639C0.448024 22.7678 2.55115 26.6975 6.25527 28.1791C12.5108 30.6814 19.4892 30.6814 25.7447 28.1791C29.4488 26.6975 31.552 22.7678 30.7301 18.8639L29.1505 11.3609C28.3538 7.57632 25.5059 4.55599 21.7746 3.53837C17.9939 2.50727 14.0061 2.50727 10.2254 3.53837C6.49411 4.55599 3.64622 7.57633 2.84946 11.3609Z" stroke="white" stroke-width="2"/>
<path d="M2.24844 19.0699L3.82801 11.5669C4.54749 8.14943 7.11914 5.42205 10.4885 4.50314C14.0969 3.51902 17.9031 3.51902 21.5115 4.50314C24.8809 5.42205 27.4525 8.14943 28.172 11.5669L29.7516 19.0699C30.4733 22.4983 28.6263 25.9495 25.3733 27.2507C19.3562 29.6575 12.6438 29.6575 6.62667 27.2507C3.37366 25.9495 1.52667 22.4983 2.24844 19.0699Z" fill="black"/>
<path fill-rule="evenodd" clip-rule="evenodd" d="M16 14C20.4183 14 24 12.2091 24 10C24 7.79086 20.4183 6 16 6C12.6088 6 9.71051 7.05499 8.54622 8.54437C7.84314 9.26618 6 11.6054 6 16.5C6 24.5 11 23 11 21C11 19.8284 10.3137 17.6274 9.74517 15.804C9.34315 14.5147 9 13.4142 9 13C9 12.6186 9.15155 12.3735 9.34626 12.2216C10.7813 13.2939 13.2257 14 16 14Z" fill="white"/>
</svg>
